<svg width="327" height="131" viewBox="0 0 327 131" fill="none" xmlns="http://www.w3.org/2000/svg">
<rect width="327" height="131" rx="16" fill="#242426"/>
<path d="M36.0605 34.6641C35.8359 32.3398 34 30.416 30.8262 30.416C27.2129 30.416 25.1328 32.8379 25.1328 36.4512V38.1406C25.1328 41.7539 27.0078 44.2539 30.8359 44.2539C34.4102 44.2539 36.1094 42.0664 36.1094 39.4785V36.8223H30.8555V38.7852H33.5996V39.6348C33.5996 40.9727 32.6914 42.0469 30.8652 42.0469C28.7656 42.0469 27.7988 40.4746 27.7988 38.1309V36.4707C27.7988 34.0391 28.8926 32.6328 30.7969 32.6328C32.2617 32.6328 33.2188 33.4629 33.4727 34.6641H36.0605ZM43.2676 33.4531C40.416 33.4531 38.5117 35.3477 38.5117 38.2285V39.3711C38.5117 42.4668 40.3965 44.1855 43.2676 44.1855C46.0996 44.1855 47.9941 42.4473 47.9941 39.3711V38.209C47.9941 35.2793 46.0996 33.4531 43.2676 33.4531ZM43.2676 35.4453C44.6934 35.4453 45.3965 36.7051 45.3965 38.2773V39.3516C45.3965 40.9141 44.7422 42.1836 43.2676 42.1836C41.7832 42.1836 41.1094 40.9043 41.1094 39.3516V38.2773C41.1094 36.7148 41.832 35.4453 43.2676 35.4453ZM60.5137 30.6699H55.1816V44H57.8184V39.5273H60.4941C63.375 39.5273 65.0156 37.623 65.0156 35.1133C65.0156 32.623 63.3945 30.6699 60.5137 30.6699ZM62.3301 35.1133C62.3301 36.5977 61.4609 37.457 60.0059 37.457H57.8086V32.7695H60.0059C61.4609 32.7695 62.3301 33.6191 62.3301 35.1133ZM67.3496 44H69.9766V38.0723C69.9766 36.6758 70.7773 35.6895 72.457 35.6895C72.8574 35.6895 73.2773 35.7188 73.4727 35.7773V33.5508C73.2773 33.5117 73.0137 33.4824 72.6621 33.4824C71.0215 33.4824 70.2598 34.5566 70.0449 35.2598H69.918V33.6387H67.3496V44ZM79.6836 44.1855C82.6426 44.1855 83.9219 42.3398 84.0293 41.0508H81.5879C81.4707 41.6953 80.7285 42.2031 79.6738 42.2031C78.3262 42.2031 77.4766 41.2461 77.4766 39.8789V39.3906H84.127V38.1992C84.127 35.2695 82.2422 33.4531 79.5566 33.4531C76.9785 33.4531 74.957 35.1328 74.957 38.1992V39.4297C74.957 42.4863 76.8125 44.1855 79.6836 44.1855ZM77.4766 37.8281V37.7207C77.4766 36.3145 78.3262 35.3867 79.5664 35.3867C80.8164 35.3867 81.6367 36.3145 81.6367 37.7207V37.8281H77.4766ZM86.6855 44H89.2539V37.6816C89.2539 36.334 90.0449 35.5918 91.0801 35.5918C92.1152 35.5918 92.8867 36.2559 92.8867 37.6035V44H95.3672V37.7012C95.3672 36.373 96.1777 35.5918 97.2324 35.5918C98.3066 35.5918 99.0098 36.2363 99.0098 37.5547V44H101.578V36.7637C101.578 34.7324 100.338 33.4727 98.2383 33.4727C96.4609 33.4727 95.4551 34.4688 95.0938 35.4258H94.9961C94.6836 34.3027 93.7168 33.4727 92.1543 33.4727C90.2695 33.4727 89.5469 34.5762 89.3223 35.3477H89.1953V33.6387H86.6855V44ZM104.449 30.582C104.449 31.4219 105.113 31.998 106.061 31.998C107.027 31.998 107.682 31.4219 107.682 30.582C107.682 29.7324 107.027 29.1465 106.061 29.1465C105.113 29.1465 104.449 29.7227 104.449 30.582ZM104.781 44H107.35V33.6387H104.781V44ZM119.703 33.6387H117.135V39.8691C117.135 41.1289 116.168 42.0078 114.986 42.0078C114.029 42.0078 113.111 41.5781 113.111 39.9863V33.6387H110.543V40.6602C110.543 43.1113 111.949 44.1562 114.01 44.1562C115.836 44.1562 116.783 43.0918 117.066 42.2715H117.193V44H119.703V33.6387ZM122.779 44H125.348V37.6816C125.348 36.334 126.139 35.5918 127.174 35.5918C128.209 35.5918 128.98 36.2559 128.98 37.6035V44H131.461V37.7012C131.461 36.373 132.271 35.5918 133.326 35.5918C134.4 35.5918 135.104 36.2363 135.104 37.5547V44H137.672V36.7637C137.672 34.7324 136.432 33.4727 134.332 33.4727C132.555 33.4727 131.549 34.4688 131.188 35.4258H131.09C130.777 34.3027 129.811 33.4727 128.248 33.4727C126.363 33.4727 125.641 34.5762 125.416 35.3477H125.289V33.6387H122.779V44ZM140.719 30.6699L141.012 39.459H143.248L143.551 30.6699H140.719ZM140.416 42.6914C140.416 43.5703 141.109 44.1953 142.115 44.1953C143.17 44.1953 143.854 43.5703 143.854 42.6914C143.854 41.7832 143.17 41.168 142.115 41.168C141.1 41.168 140.416 41.7832 140.416 42.6914Z" fill="#FEB340"/>
<path d="M38.0833 85.5833L47.8333 78L38.0833 70.4166V85.5833Z" fill="#FEB340" stroke="#FEB340" stroke-width="2" stroke-linecap="round" stroke-linejoin="round"/>
<path d="M26.1667 85.5833L35.9167 78L26.1667 70.4166V85.5833Z" fill="#FEB340" stroke="#FEB340" stroke-width="2" stroke-linecap="round" stroke-linejoin="round"/>
<path d="M67.7891 81.1094C68.2188 81.1094 68.4844 80.8281 68.4844 80.3828V72.1797H68.5547L74.4844 80.6484C74.7344 81.0078 74.9141 81.1094 75.2969 81.1094C75.7969 81.1094 76.0938 80.8203 76.0938 80.3438V70.3438C76.0938 69.8984 75.8281 69.6172 75.3984 69.6172C74.9688 69.6172 74.7031 69.8984 74.7031 70.3438V78.5781H74.6328L68.7109 70.0859C68.4609 69.7266 68.2734 69.6172 67.8984 69.6172C67.4141 69.6172 67.0938 69.9453 67.0938 70.4375V80.3828C67.0938 80.8281 67.3594 81.1094 67.7891 81.1094ZM81.8475 81.1406C84.0897 81.1406 85.6053 79.5234 85.6053 76.9375C85.6053 74.3438 84.0897 72.7344 81.8475 72.7344C79.5975 72.7344 78.0819 74.3438 78.0819 76.9375C78.0819 79.5234 79.5975 81.1406 81.8475 81.1406ZM81.8475 79.9453C80.41 79.9453 79.4647 78.8516 79.4647 76.9375C79.4647 75.0234 80.41 73.9297 81.8475 73.9297C83.285 73.9297 84.2225 75.0234 84.2225 76.9375C84.2225 78.8516 83.285 79.9453 81.8475 79.9453ZM93.9019 81.1406C95.8316 81.1406 97.1362 80.1641 97.1362 78.7109C97.1362 77.5156 96.5112 76.9219 94.8159 76.5078L93.605 76.2109C92.7144 75.9922 92.2769 75.6016 92.2769 75.0391C92.2769 74.3438 92.9566 73.8516 93.9331 73.8516C94.7612 73.8516 95.2847 74.1484 95.6362 74.8281C95.7847 75.1094 95.9722 75.1953 96.2378 75.1953C96.5659 75.1953 96.7691 74.9844 96.7691 74.6641C96.7691 74.6016 96.7612 74.5391 96.7456 74.4609C96.5347 73.4844 95.3472 72.7344 94.0112 72.7344C92.1753 72.7344 90.9331 73.6953 90.9331 75.1094C90.9331 76.25 91.6909 76.9922 93.2612 77.3828L94.5034 77.6953C95.4175 77.9219 95.7534 78.2344 95.7534 78.8203C95.7534 79.5781 95.0503 80.0312 94.0112 80.0312C92.9722 80.0312 92.4878 79.7109 92.0816 79C91.9253 78.7188 91.73 78.5938 91.4878 78.5938C91.1362 78.5938 90.8706 78.7969 90.8706 79.1562C90.8706 79.2578 90.8862 79.3594 90.9331 79.4766C91.3237 80.4922 92.4566 81.1406 93.9019 81.1406ZM99.6244 83.8672C100.023 83.8672 100.304 83.5703 100.304 83.1406V79.6797H100.335C100.82 80.5703 101.757 81.1406 102.921 81.1406C104.968 81.1406 106.367 79.4844 106.367 76.9375C106.367 74.3906 104.96 72.7344 102.89 72.7344C101.71 72.7344 100.765 73.3359 100.265 74.25H100.234V73.4219C100.234 73.0156 99.9681 72.7344 99.5931 72.7344C99.2103 72.7344 98.9447 73.0156 98.9447 73.4219V83.1406C98.9447 83.5703 99.2259 83.8672 99.6244 83.8672ZM102.624 79.9453C101.234 79.9453 100.296 78.75 100.296 76.9375C100.296 75.1328 101.234 73.9297 102.624 73.9297C104.07 73.9297 104.976 75.1016 104.976 76.9375C104.976 78.7812 104.07 79.9453 102.624 79.9453ZM111.558 81.1406C113.042 81.1406 114.183 80.5156 114.706 79.4141C114.769 79.2656 114.808 79.125 114.808 79.0156C114.808 78.6562 114.566 78.4219 114.206 78.4219C113.995 78.4219 113.839 78.5 113.698 78.6953C113.066 79.6172 112.472 79.9609 111.503 79.9609C110.05 79.9609 109.152 78.9453 109.152 77.3047H114.23C114.698 77.3047 114.98 77.0078 114.98 76.5156C114.98 74.2891 113.519 72.7344 111.441 72.7344C109.198 72.7344 107.753 74.4062 107.753 76.9688C107.753 79.5938 109.159 81.1406 111.558 81.1406ZM109.159 76.2422C109.245 74.8438 110.152 73.9141 111.417 73.9141C112.675 73.9141 113.542 74.8359 113.573 76.2422H109.159ZM120.171 81.1406C121.655 81.1406 122.796 80.5156 123.319 79.4141C123.382 79.2656 123.421 79.125 123.421 79.0156C123.421 78.6562 123.179 78.4219 122.819 78.4219C122.608 78.4219 122.452 78.5 122.312 78.6953C121.679 79.6172 121.085 79.9609 120.116 79.9609C118.663 79.9609 117.765 78.9453 117.765 77.3047H122.843C123.312 77.3047 123.593 77.0078 123.593 76.5156C123.593 74.2891 122.132 72.7344 120.054 72.7344C117.812 72.7344 116.366 74.4062 116.366 76.9688C116.366 79.5938 117.772 81.1406 120.171 81.1406ZM117.772 76.2422C117.858 74.8438 118.765 73.9141 120.03 73.9141C121.288 73.9141 122.155 74.8359 122.187 76.2422H117.772ZM128.456 81.1406C129.729 81.1406 130.573 80.5156 131.018 79.5469H131.042V80.4766C131.042 80.875 131.354 81.1406 131.737 81.1406C132.128 81.1406 132.401 80.8672 132.401 80.4766V70.3125C132.401 69.8828 132.12 69.5859 131.722 69.5859C131.323 69.5859 131.042 69.8828 131.042 70.3125V74.1953H131.011C130.526 73.3047 129.589 72.7344 128.425 72.7344C126.378 72.7344 124.979 74.3906 124.979 76.9375C124.979 79.4844 126.386 81.1406 128.456 81.1406ZM128.714 79.9453C127.276 79.9453 126.37 78.7812 126.37 76.9375C126.37 75.1016 127.276 73.9297 128.714 73.9297C130.112 73.9297 131.05 75.125 131.05 76.9375C131.05 78.7578 130.112 79.9453 128.714 79.9453ZM67.6328 102.141C68.0312 102.141 68.3125 101.844 68.3125 101.414V91.3125C68.3125 90.8828 68.0312 90.5859 67.6328 90.5859C67.2344 90.5859 66.9531 90.8828 66.9531 91.3125V101.414C66.9531 101.844 67.2344 102.141 67.6328 102.141ZM71.3084 92.5078C71.7772 92.5078 72.16 92.125 72.16 91.6641C72.16 91.1953 71.7772 90.8203 71.3084 90.8203C70.8475 90.8203 70.4647 91.1953 70.4647 91.6641C70.4647 92.125 70.8475 92.5078 71.3084 92.5078ZM71.3084 102.141C71.7069 102.141 71.9881 101.844 71.9881 101.414V94.4609C71.9881 94.0312 71.7069 93.7344 71.3084 93.7344C70.91 93.7344 70.6288 94.0312 70.6288 94.4609V101.414C70.6288 101.844 70.91 102.141 71.3084 102.141ZM74.9138 102.141C75.3278 102.141 75.5934 101.828 75.5934 101.414V96.9062C75.5934 95.7812 76.3747 94.9375 77.4528 94.9375C78.4606 94.9375 79.1169 95.5781 79.1169 96.5547V101.414C79.1169 101.828 79.3825 102.141 79.7966 102.141C80.2106 102.141 80.4763 101.828 80.4763 101.414V96.8359C80.4763 95.7344 81.2341 94.9375 82.3122 94.9375C83.3825 94.9375 83.9997 95.5938 83.9997 96.7031V101.414C83.9997 101.828 84.2653 102.141 84.6794 102.141C85.0934 102.141 85.3591 101.828 85.3591 101.414V96.3906C85.3591 94.7812 84.32 93.7344 82.7106 93.7344C81.57 93.7344 80.6169 94.3125 80.1638 95.2812H80.1325C79.7809 94.2969 78.9606 93.7344 77.8513 93.7344C76.7575 93.7344 75.9294 94.3125 75.5466 95.1719H75.5153V94.4219C75.5153 94.0156 75.2497 93.7344 74.8747 93.7344C74.4997 93.7344 74.2341 94.0156 74.2341 94.4219V101.414C74.2341 101.828 74.4997 102.141 74.9138 102.141ZM88.2534 92.5078C88.7222 92.5078 89.105 92.125 89.105 91.6641C89.105 91.1953 88.7222 90.8203 88.2534 90.8203C87.7925 90.8203 87.4097 91.1953 87.4097 91.6641C87.4097 92.125 87.7925 92.5078 88.2534 92.5078ZM88.2534 102.141C88.6519 102.141 88.9331 101.844 88.9331 101.414V94.4609C88.9331 94.0312 88.6519 93.7344 88.2534 93.7344C87.855 93.7344 87.5737 94.0312 87.5737 94.4609V101.414C87.5737 101.844 87.855 102.141 88.2534 102.141ZM91.6166 100.125C91.6166 101.422 92.2728 102.062 93.5853 102.062H93.6712C94.4291 102.062 94.6634 101.844 94.6634 101.43C94.6634 101.109 94.4603 100.93 94.015 100.898L93.8978 100.891C93.2181 100.844 92.9759 100.516 92.9759 99.8281V94.9922H94.0228C94.4134 94.9922 94.6322 94.7891 94.6322 94.4297C94.6322 94.0781 94.4134 93.875 94.0228 93.875H92.9759V92.4844C92.9759 92.0547 92.6947 91.7578 92.2962 91.7578C91.8978 91.7578 91.6166 92.0547 91.6166 92.4844V93.875H90.9369C90.5462 93.875 90.3275 94.0781 90.3275 94.4297C90.3275 94.7891 90.5462 94.9922 90.9369 94.9922H91.6166V100.125ZM99.2375 102.141C101.167 102.141 102.472 101.164 102.472 99.7109C102.472 98.5156 101.847 97.9219 100.152 97.5078L98.9406 97.2109C98.05 96.9922 97.6125 96.6016 97.6125 96.0391C97.6125 95.3438 98.2922 94.8516 99.2687 94.8516C100.097 94.8516 100.62 95.1484 100.972 95.8281C101.12 96.1094 101.308 96.1953 101.573 96.1953C101.902 96.1953 102.105 95.9844 102.105 95.6641C102.105 95.6016 102.097 95.5391 102.081 95.4609C101.87 94.4844 100.683 93.7344 99.3469 93.7344C97.5109 93.7344 96.2687 94.6953 96.2687 96.1094C96.2687 97.25 97.0266 97.9922 98.5969 98.3828L99.8391 98.6953C100.753 98.9219 101.089 99.2344 101.089 99.8203C101.089 100.578 100.386 101.031 99.3469 101.031C98.3078 101.031 97.8234 100.711 97.4172 100C97.2609 99.7188 97.0656 99.5938 96.8234 99.5938C96.4719 99.5938 96.2062 99.7969 96.2062 100.156C96.2062 100.258 96.2219 100.359 96.2687 100.477C96.6594 101.492 97.7922 102.141 99.2375 102.141Z" fill="white"/>
<path fill-rule="evenodd" clip-rule="evenodd" d="M183 89.9166C183 89.9166 192.75 83.4166 192.75 75.8333C192.75 73.2474 191.723 70.7674 189.894 68.939C188.066 67.1105 185.586 66.0833 183 66.0833C180.414 66.0833 177.934 67.1105 176.106 68.939C174.277 70.7674 173.25 73.2474 173.25 75.8333C173.25 83.4166 183 89.9166 183 89.9166ZM180.75 75.8333C180.75 74.5906 181.757 73.5833 183 73.5833C184.243 73.5833 185.25 74.5906 185.25 75.8333C185.25 77.0759 184.243 78.0833 183 78.0833C181.757 78.0833 180.75 77.0759 180.75 75.8333ZM183 71.5833C180.653 71.5833 178.75 73.486 178.75 75.8333C178.75 78.1805 180.653 80.0833 183 80.0833C185.347 80.0833 187.25 78.1805 187.25 75.8333C187.25 73.486 185.347 71.5833 183 71.5833Z" fill="#FEB340"/>
<path d="M216.078 81.1094C216.516 81.1094 216.75 80.9141 216.891 80.4453L219.352 72.0547H219.43L221.891 80.4453C222.031 80.9141 222.266 81.1094 222.703 81.1094C223.125 81.1094 223.359 80.8984 223.492 80.4375L226.25 70.6484C226.297 70.4766 226.312 70.3828 226.312 70.2578C226.312 69.8828 226.023 69.6172 225.617 69.6172C225.258 69.6172 225.016 69.8125 224.922 70.1797L222.703 78.9297H222.641L220.258 70.375C220.109 69.8438 219.859 69.6172 219.398 69.6172C218.922 69.6172 218.672 69.8438 218.516 70.4062L216.141 78.9297H216.078L213.859 70.1797C213.766 69.8203 213.531 69.6172 213.164 69.6172C212.758 69.6172 212.469 69.8828 212.469 70.2578C212.469 70.3828 212.484 70.4766 212.531 70.6484L215.289 80.4375C215.422 80.8984 215.656 81.1094 216.078 81.1094ZM230.582 81.1406C232.824 81.1406 234.34 79.5234 234.34 76.9375C234.34 74.3438 232.824 72.7344 230.582 72.7344C228.332 72.7344 226.816 74.3438 226.816 76.9375C226.816 79.5234 228.332 81.1406 230.582 81.1406ZM230.582 79.9453C229.144 79.9453 228.199 78.8516 228.199 76.9375C228.199 75.0234 229.144 73.9297 230.582 73.9297C232.019 73.9297 232.957 75.0234 232.957 76.9375C232.957 78.8516 232.019 79.9453 230.582 79.9453ZM236.804 81.1406C237.203 81.1406 237.484 80.8438 237.484 80.4141V75.9531C237.484 74.9141 238.007 74.0312 239.234 74.0312C239.531 74.0312 239.742 73.9766 239.882 73.8594C240.023 73.75 240.093 73.5938 240.093 73.3828C240.093 73.1953 240.039 73.0391 239.922 72.9297C239.789 72.8047 239.578 72.7344 239.281 72.7344C238.468 72.7344 237.672 73.3594 237.437 74.2031H237.406V73.4219C237.406 73.0156 237.14 72.7344 236.765 72.7344C236.39 72.7344 236.125 73.0156 236.125 73.4219V80.4141C236.125 80.8438 236.406 81.1406 236.804 81.1406ZM242.222 81.1406C242.621 81.1406 242.902 80.8438 242.902 80.4141V70.3125C242.902 69.8828 242.621 69.5859 242.222 69.5859C241.824 69.5859 241.542 69.8828 241.542 70.3125V80.4141C241.542 80.8438 241.824 81.1406 242.222 81.1406ZM248.226 81.1406C249.499 81.1406 250.343 80.5156 250.788 79.5469H250.812V80.4766C250.812 80.875 251.124 81.1406 251.507 81.1406C251.898 81.1406 252.171 80.8672 252.171 80.4766V70.3125C252.171 69.8828 251.89 69.5859 251.492 69.5859C251.093 69.5859 250.812 69.8828 250.812 70.3125V74.1953H250.781C250.296 73.3047 249.359 72.7344 248.195 72.7344C246.148 72.7344 244.749 74.3906 244.749 76.9375C244.749 79.4844 246.156 81.1406 248.226 81.1406ZM248.484 79.9453C247.046 79.9453 246.14 78.7812 246.14 76.9375C246.14 75.1016 247.046 73.9297 248.484 73.9297C249.882 73.9297 250.82 75.125 250.82 76.9375C250.82 78.7578 249.882 79.9453 248.484 79.9453ZM256.706 81.1406C257.136 81.1406 257.433 80.9141 257.558 80.4844L259.237 74.7109H259.269L260.956 80.4844C261.089 80.9453 261.347 81.1406 261.8 81.1406C262.222 81.1406 262.503 80.9219 262.628 80.4844L264.612 73.6719C264.652 73.5391 264.667 73.4219 264.667 73.3203C264.667 72.9609 264.409 72.7344 264.003 72.7344C263.667 72.7344 263.487 72.8906 263.386 73.2891L261.784 79.4844H261.753L260.034 73.3359C259.925 72.9375 259.667 72.7344 259.261 72.7344C258.847 72.7344 258.573 72.9453 258.464 73.3438L256.761 79.4844H256.73L255.128 73.2891C255.027 72.8906 254.847 72.7344 254.511 72.7344C254.105 72.7344 253.847 72.9609 253.847 73.3203C253.847 73.4219 253.862 73.5391 253.902 73.6719L255.886 80.4844C256.019 80.9375 256.277 81.1406 256.706 81.1406ZM267.03 71.5078C267.499 71.5078 267.882 71.125 267.882 70.6641C267.882 70.1953 267.499 69.8203 267.03 69.8203C266.569 69.8203 266.187 70.1953 266.187 70.6641C266.187 71.125 266.569 71.5078 267.03 71.5078ZM267.03 81.1406C267.429 81.1406 267.71 80.8438 267.71 80.4141V73.4609C267.71 73.0312 267.429 72.7344 267.03 72.7344C266.632 72.7344 266.351 73.0312 266.351 73.4609V80.4141C266.351 80.8438 266.632 81.1406 267.03 81.1406ZM273.034 81.1406C274.307 81.1406 275.151 80.5156 275.597 79.5469H275.62V80.4766C275.62 80.875 275.932 81.1406 276.315 81.1406C276.706 81.1406 276.979 80.8672 276.979 80.4766V70.3125C276.979 69.8828 276.698 69.5859 276.3 69.5859C275.901 69.5859 275.62 69.8828 275.62 70.3125V74.1953H275.589C275.104 73.3047 274.167 72.7344 273.003 72.7344C270.956 72.7344 269.557 74.3906 269.557 76.9375C269.557 79.4844 270.964 81.1406 273.034 81.1406ZM273.292 79.9453C271.854 79.9453 270.948 78.7812 270.948 76.9375C270.948 75.1016 271.854 73.9297 273.292 73.9297C274.69 73.9297 275.628 75.125 275.628 76.9375C275.628 78.7578 274.69 79.9453 273.292 79.9453ZM282.632 81.1406C284.116 81.1406 285.257 80.5156 285.78 79.4141C285.842 79.2656 285.882 79.125 285.882 79.0156C285.882 78.6562 285.639 78.4219 285.28 78.4219C285.069 78.4219 284.913 78.5 284.772 78.6953C284.139 79.6172 283.546 79.9609 282.577 79.9609C281.124 79.9609 280.225 78.9453 280.225 77.3047H285.303C285.772 77.3047 286.053 77.0078 286.053 76.5156C286.053 74.2891 284.592 72.7344 282.514 72.7344C280.272 72.7344 278.827 74.4062 278.827 76.9688C278.827 79.5938 280.233 81.1406 282.632 81.1406ZM280.233 76.2422C280.319 74.8438 281.225 73.9141 282.491 73.9141C283.749 73.9141 284.616 74.8359 284.647 76.2422H280.233ZM216.234 102.141C217.711 102.141 219 101.328 219.391 100.203C219.43 100.078 219.453 99.9609 219.453 99.8594C219.453 99.5078 219.219 99.2656 218.867 99.2656C218.57 99.2656 218.422 99.375 218.227 99.7422C217.805 100.523 217.211 100.945 216.234 100.945C214.836 100.945 213.867 99.8047 213.867 97.9375C213.867 96.1172 214.82 94.9297 216.234 94.9297C217.172 94.9297 217.789 95.3281 218.219 96.1328C218.406 96.4844 218.57 96.6094 218.867 96.6094C219.219 96.6094 219.445 96.375 219.445 96.0156C219.445 95.9297 219.43 95.8281 219.398 95.7266C219.086 94.6016 217.75 93.7344 216.219 93.7344C213.969 93.7344 212.484 95.3984 212.484 97.9531C212.484 100.523 213.984 102.141 216.234 102.141ZM224.676 102.141C226.918 102.141 228.433 100.523 228.433 97.9375C228.433 95.3438 226.918 93.7344 224.676 93.7344C222.426 93.7344 220.91 95.3438 220.91 97.9375C220.91 100.523 222.426 102.141 224.676 102.141ZM224.676 100.945C223.238 100.945 222.293 99.8516 222.293 97.9375C222.293 96.0234 223.238 94.9297 224.676 94.9297C226.113 94.9297 227.051 96.0234 227.051 97.9375C227.051 99.8516 226.113 100.945 224.676 100.945ZM230.898 102.141C231.297 102.141 231.578 101.844 231.578 101.414V97.2188C231.578 95.8438 232.414 94.9375 233.695 94.9375C234.945 94.9375 235.562 95.6562 235.562 96.9688V101.414C235.562 101.844 235.843 102.141 236.242 102.141C236.64 102.141 236.922 101.844 236.922 101.414V96.7266C236.922 94.8828 235.89 93.7344 234.109 93.7344C232.851 93.7344 231.984 94.2969 231.531 95.1719H231.5V94.4219C231.5 94.0156 231.234 93.7344 230.859 93.7344C230.484 93.7344 230.218 94.0156 230.218 94.4219V101.414C230.218 101.844 230.5 102.141 230.898 102.141ZM239.746 102.141C240.144 102.141 240.425 101.844 240.425 101.414V97.2188C240.425 95.8438 241.261 94.9375 242.542 94.9375C243.792 94.9375 244.41 95.6562 244.41 96.9688V101.414C244.41 101.844 244.691 102.141 245.089 102.141C245.488 102.141 245.769 101.844 245.769 101.414V96.7266C245.769 94.8828 244.738 93.7344 242.957 93.7344C241.699 93.7344 240.832 94.2969 240.378 95.1719H240.347V94.4219C240.347 94.0156 240.082 93.7344 239.707 93.7344C239.332 93.7344 239.066 94.0156 239.066 94.4219V101.414C239.066 101.844 239.347 102.141 239.746 102.141ZM251.32 102.141C252.804 102.141 253.945 101.516 254.468 100.414C254.531 100.266 254.57 100.125 254.57 100.016C254.57 99.6562 254.327 99.4219 253.968 99.4219C253.757 99.4219 253.601 99.5 253.46 99.6953C252.827 100.617 252.234 100.961 251.265 100.961C249.812 100.961 248.913 99.9453 248.913 98.3047H253.992C254.46 98.3047 254.742 98.0078 254.742 97.5156C254.742 95.2891 253.281 93.7344 251.202 93.7344C248.96 93.7344 247.515 95.4062 247.515 97.9688C247.515 100.594 248.921 102.141 251.32 102.141ZM248.921 97.2422C249.007 95.8438 249.913 94.9141 251.179 94.9141C252.437 94.9141 253.304 95.8359 253.335 97.2422H248.921ZM259.878 102.141C261.355 102.141 262.644 101.328 263.034 100.203C263.073 100.078 263.097 99.9609 263.097 99.8594C263.097 99.5078 262.862 99.2656 262.511 99.2656C262.214 99.2656 262.066 99.375 261.87 99.7422C261.448 100.523 260.855 100.945 259.878 100.945C258.48 100.945 257.511 99.8047 257.511 97.9375C257.511 96.1172 258.464 94.9297 259.878 94.9297C260.816 94.9297 261.433 95.3281 261.862 96.1328C262.05 96.4844 262.214 96.6094 262.511 96.6094C262.862 96.6094 263.089 96.375 263.089 96.0156C263.089 95.9297 263.073 95.8281 263.042 95.7266C262.73 94.6016 261.394 93.7344 259.862 93.7344C257.612 93.7344 256.128 95.3984 256.128 97.9531C256.128 100.523 257.628 102.141 259.878 102.141ZM265.39 100.125C265.39 101.422 266.046 102.062 267.358 102.062H267.444C268.202 102.062 268.437 101.844 268.437 101.43C268.437 101.109 268.233 100.93 267.788 100.898L267.671 100.891C266.991 100.844 266.749 100.516 266.749 99.8281V94.9922H267.796C268.187 94.9922 268.405 94.7891 268.405 94.4297C268.405 94.0781 268.187 93.875 267.796 93.875H266.749V92.4844C266.749 92.0547 266.468 91.7578 266.069 91.7578C265.671 91.7578 265.39 92.0547 265.39 92.4844V93.875H264.71C264.319 93.875 264.101 94.0781 264.101 94.4297C264.101 94.7891 264.319 94.9922 264.71 94.9922H265.39V100.125ZM270.94 92.5078C271.409 92.5078 271.792 92.125 271.792 91.6641C271.792 91.1953 271.409 90.8203 270.94 90.8203C270.479 90.8203 270.097 91.1953 270.097 91.6641C270.097 92.125 270.479 92.5078 270.94 92.5078ZM270.94 102.141C271.339 102.141 271.62 101.844 271.62 101.414V94.4609C271.62 94.0312 271.339 93.7344 270.94 93.7344C270.542 93.7344 270.261 94.0312 270.261 94.4609V101.414C270.261 101.844 270.542 102.141 270.94 102.141ZM277.233 102.141C279.475 102.141 280.991 100.523 280.991 97.9375C280.991 95.3438 279.475 93.7344 277.233 93.7344C274.983 93.7344 273.467 95.3438 273.467 97.9375C273.467 100.523 274.983 102.141 277.233 102.141ZM277.233 100.945C275.796 100.945 274.85 99.8516 274.85 97.9375C274.85 96.0234 275.796 94.9297 277.233 94.9297C278.671 94.9297 279.608 96.0234 279.608 97.9375C279.608 99.8516 278.671 100.945 277.233 100.945ZM283.456 102.141C283.854 102.141 284.135 101.844 284.135 101.414V97.2188C284.135 95.8438 284.971 94.9375 286.253 94.9375C287.503 94.9375 288.12 95.6562 288.12 96.9688V101.414C288.12 101.844 288.401 102.141 288.799 102.141C289.198 102.141 289.479 101.844 289.479 101.414V96.7266C289.479 94.8828 288.448 93.7344 286.667 93.7344C285.409 93.7344 284.542 94.2969 284.088 95.1719H284.057V94.4219C284.057 94.0156 283.792 93.7344 283.417 93.7344C283.042 93.7344 282.776 94.0156 282.776 94.4219V101.414C282.776 101.844 283.057 102.141 283.456 102.141Z" fill="white"/>
</svg>
